<svg id="certified" xmlns="http://www.w3.org/2000/svg" viewBox="0 0 10.24 10.38"><defs><style>.cls-1{fill:#3b3b3b}</style></defs><g id="Certified-Hobby-Shop"><path id="Path" class="cls-1" d="M9.68 8.15a1.72 1.72 0 00.32 0v1.42a1.62 1.62 0 01-1.61 1.62H3.61A1.62 1.62 0 012 9.57V8.13a1.62 1.62 0 00.31 0 2.38 2.38 0 001.74-.73.15.15 0 01.11 0 .13.13 0 01.1 0 2.37 2.37 0 003.48 0 .15.15 0 01.2 0 2.34 2.34 0 001.74.75z" transform="translate(-.88 -.81)"/><path id="Path-2" data-name="Path" class="cls-1" d="M11.08 4.69l-.25-.91-.54-2.16a1.1 1.1 0 00-1-.81H2.75a1.08 1.08 0 00-1 .81l-.58 2.16s-.25.9-.25.91A.92.92 0 00.88 5a.49.49 0 000 .12 1.45 1.45 0 00.12.52 1.4 1.4 0 001 .81 1 1 0 00.3 0 1.34 1.34 0 001.35-1.18.49.49 0 01.42-.44.5.5 0 01.53.31v.18a1.36 1.36 0 002.7 0 1.06 1.06 0 010-.2.5.5 0 01.46-.31.48.48 0 01.46.31.36.36 0 010 .11 1.36 1.36 0 001.46 1.22 1 1 0 00.33 0 1.41 1.41 0 00.39-.19 1.28 1.28 0 00.29-.26 1.36 1.36 0 00.42-.9.49.49 0 000-.12.92.92 0 00-.03-.29z" transform="translate(-.88 -.81)"/></g></svg>